<?xml version="1.0" standalone="no"?>
<!DOCTYPE svg PUBLIC "-//W3C//DTD SVG 20010904//EN"
 "http://www.w3.org/TR/2001/REC-SVG-20010904/DTD/svg10.dtd">
<svg version="1.0" xmlns="http://www.w3.org/2000/svg"
 width="2000.000000pt" height="2000.000000pt" viewBox="0 0 2000.000000 2000.000000"
 preserveAspectRatio="xMidYMid meet">
<metadata>
Created by potrace 1.11, written by Peter Selinger 2001-2013
</metadata>
<g transform="translate(0.000000,2000.000000) scale(0.100000,-0.100000)"
fill="#000000" stroke="none">
<path d="M0 10000 l0 -10000 1789 0 1788 0 1109 938 c610 515 1428 1207 1818
1537 390 330 715 603 722 607 8 5 118 -118 320 -358 170 -201 309 -369 309
-373 0 -5 -400 -347 -890 -761 -489 -414 -1111 -940 -1382 -1169 l-492 -416
2116 -3 c1164 -1 2118 0 2121 3 3 2 0 141 -7 307 -62 1646 -187 5088 -222
6121 -14 431 -10 571 19 647 50 128 181 250 310 290 130 40 295 20 405 -50
103 -65 189 -185 216 -300 17 -71 55 -802 42 -809 -11 -7 2 -425 99 -3051 28
-745 64 -1724 80 -2175 16 -451 33 -857 36 -903 l6 -82 1734 0 1735 0 -68 98
c-376 542 -713 958 -1179 1452 -210 223 -395 402 -746 724 -126 114 -228 211
-228 215 0 10 640 711 649 711 19 0 555 -502 826 -774 713 -715 1290 -1444
1809 -2283 l88 -143 2534 0 2534 0 0 10000 0 10000 -10000 0 -10000 0 0
-10000z m10370 7484 c806 -76 1580 -350 2255 -799 1186 -788 1986 -2048 2195
-3456 56 -382 71 -863 36 -1219 -62 -643 -225 -1225 -501 -1785 -550 -1118
-1497 -1995 -2645 -2448 -972 -383 -2049 -448 -3055 -182 -1693 446 -3037
1769 -3524 3470 -135 471 -194 895 -194 1405 0 306 13 486 53 760 242 1630
1273 3046 2745 3770 619 305 1254 467 1970 504 128 7 508 -5 665 -20z"/>
<path d="M9630 16524 c-19 -2 -84 -9 -145 -15 -255 -24 -594 -98 -850 -186
-1375 -470 -2394 -1659 -2659 -3103 -52 -286 -61 -392 -61 -750 0 -358 9 -464
61 -750 229 -1248 1024 -2318 2144 -2885 416 -210 810 -332 1290 -397 142 -19
210 -23 490 -23 346 0 456 9 735 60 1042 193 1980 817 2582 1720 358 537 572
1122 660 1800 26 202 26 751 0 950 -90 691 -309 1282 -680 1830 -188 279 -483
608 -732 816 -473 397 -1025 680 -1600 823 -331 82 -530 107 -905 111 -162 2
-311 1 -330 -1z m-938 -1558 c176 -62 268 -163 314 -346 19 -76 14 -215 -10
-293 -48 -152 -155 -254 -320 -305 -72 -22 -226 -21 -296 2 -148 49 -231 117
-290 241 -67 140 -74 263 -24 414 67 201 227 308 464 310 76 0 109 -4 162 -23z
m2570 -538 c197 -64 299 -244 285 -502 -6 -122 -31 -196 -91 -269 -86 -105
-199 -155 -369 -164 -160 -9 -274 28 -365 117 -93 90 -132 201 -133 375 -1
181 50 298 169 382 124 89 341 115 504 61z m629 -2048 c322 -354 407 -447 436
-480 l32 -37 -77 -69 c-42 -38 -149 -134 -237 -214 -569 -516 -986 -823 -1429
-1050 -289 -148 -565 -238 -829 -270 -136 -17 -395 -8 -514 19 -577 127 -1000
581 -1247 1336 -65 199 -177 608 -169 615 7 7 864 254 907 262 16 3 29 -34
106 -302 113 -391 173 -544 276 -701 68 -102 154 -183 242 -226 75 -38 77 -38
196 -38 137 0 215 16 365 72 380 141 860 473 1421 982 108 98 213 194 220 201
3 3 29 27 59 54 l54 49 46 -49 c25 -27 89 -96 142 -154z"/>
</g>
</svg>
