<?xml version="1.0" standalone="no"?>
<!DOCTYPE svg PUBLIC "-//W3C//DTD SVG 20010904//EN"
 "http://www.w3.org/TR/2001/REC-SVG-20010904/DTD/svg10.dtd">
<svg version="1.0" xmlns="http://www.w3.org/2000/svg"
 width="2000.000000pt" height="2000.000000pt" viewBox="0 0 2000.000000 2000.000000"
 preserveAspectRatio="xMidYMid meet">
<metadata>
Created by potrace 1.11, written by Peter Selinger 2001-2013
</metadata>
<g transform="translate(0.000000,2000.000000) scale(0.100000,-0.100000)"
fill="#000000" stroke="none">
<path d="M0 10000 l0 -10000 1793 1 1792 0 845 715 c1506 1275 2798 2367 2803
2368 2 0 144 -164 315 -365 l310 -367 -31 -29 c-18 -17 -295 -252 -617 -524
-322 -271 -931 -786 -1354 -1144 l-770 -650 2124 -3 c1168 -1 2124 -1 2125 0
1 2 -4 154 -11 338 -66 1719 -200 5411 -225 6208 -13 422 -9 476 44 576 40 76
136 175 205 210 198 100 431 61 578 -96 66 -72 100 -136 120 -226 19 -89 57
-794 42 -803 -12 -8 16 -825 179 -5196 l37 -1013 1739 0 c1388 0 1737 3 1731
13 -21 36 -204 294 -318 447 -459 620 -1011 1222 -1654 1805 -133 121 -241
222 -240 226 7 16 643 709 649 707 12 -5 447 -404 628 -577 731 -697 1410
-1534 1979 -2441 l110 -175 2536 -3 2536 -2 0 10000 0 10000 -10000 0 -10000
0 0 -10000z m10323 7485 c830 -73 1594 -338 2284 -792 478 -314 905 -715 1253
-1178 581 -772 922 -1683 999 -2664 14 -173 14 -589 0 -762 -68 -868 -342
-1680 -807 -2389 -207 -316 -390 -541 -666 -815 -111 -110 -246 -238 -301
-284 -641 -534 -1376 -893 -2170 -1060 -649 -137 -1387 -136 -2041 5 -410 87
-768 213 -1154 406 -523 260 -933 559 -1345 979 -784 800 -1270 1823 -1405
2955 -28 227 -38 715 -21 944 83 1090 472 2056 1171 2900 131 159 458 486 620
620 335 278 636 472 1025 661 551 267 1093 417 1710 474 198 18 644 18 848 0z"/>
<path d="M9690 16530 c-757 -43 -1488 -301 -2095 -740 -313 -227 -631 -537
-856 -835 -462 -612 -732 -1299 -815 -2077 -20 -185 -22 -587 -5 -768 73 -754
321 -1429 745 -2023 245 -344 580 -682 921 -929 1022 -742 2331 -949 3540
-561 348 112 733 303 1040 518 247 172 547 442 744 670 874 1010 1198 2386
871 3695 -133 533 -371 1027 -709 1475 -235 311 -580 643 -903 868 -722 503
-1608 756 -2478 707z m-1058 -1551 c68 -14 183 -67 227 -105 49 -41 108 -136
132 -213 41 -128 24 -308 -39 -425 -74 -139 -237 -226 -422 -226 -303 0 -504
215 -487 520 11 200 100 339 264 412 99 44 223 58 325 37z m2591 -544 c161
-42 263 -144 302 -303 35 -145 26 -288 -26 -398 -35 -74 -118 -155 -194 -190
-31 -14 -99 -33 -153 -41 -226 -36 -413 41 -501 206 -76 142 -82 363 -15 507
51 109 152 187 280 218 79 19 236 20 307 1z m713 -2110 c114 -126 254 -280
311 -342 57 -62 103 -114 103 -117 0 -6 -473 -433 -600 -542 -932 -797 -1712
-1148 -2360 -1059 -323 44 -580 172 -819 407 -259 257 -440 596 -590 1103
-120 409 -130 449 -112 457 30 14 903 259 907 255 2 -2 40 -127 83 -278 44
-151 94 -314 111 -364 107 -300 257 -513 415 -586 353 -165 1029 165 1875 917
63 56 189 170 280 252 125 114 168 148 176 139 6 -7 105 -115 220 -242z"/>
</g>
</svg>
